<svg width="27" height="32" viewBox="0 0 27 32" fill="none" xmlns="http://www.w3.org/2000/svg">
<path d="M23.241 23.473L17.5193 27.9948L20.6899 32L22.1975 28.0302L26.4096 27.4802L23.241 23.473Z" fill="white"/>
<path d="M7.45837 25.2783L11.4282 26.7869L11.9782 30.998L15.9854 27.8293L11.4646 22.1087L7.45837 25.2783Z" fill="white"/>
<path d="M17.5192 18.9118C15.7452 18.9118 14.3002 20.3558 14.3002 22.1289C14.3002 23.9049 15.7462 25.3479 17.5192 25.3479C19.2943 25.3479 20.7383 23.9039 20.7383 22.1289C20.7403 20.3558 19.2953 18.9118 17.5192 18.9118ZM19.0531 24.1915L17.5192 23.3832L15.9854 24.1915L16.278 22.4861L15.0378 21.2762L16.7523 21.0279L17.5192 19.4749L18.2862 21.0279L20.0007 21.2762L18.7605 22.4861L19.0531 24.1915Z" fill="white"/>
<path d="M21.4296 22.1107C21.4296 19.9472 19.6788 18.1984 17.5172 18.1984C15.3588 18.1984 13.6069 19.9472 13.6069 22.1107C13.6069 24.2702 15.3598 26.019 17.5172 26.019C19.6778 26.019 21.4296 24.2702 21.4296 22.1107ZM17.5193 25.5669C15.6252 25.5669 14.0832 24.026 14.0832 22.1319C14.0832 20.2358 15.6252 18.6948 17.5193 18.6948C19.4154 18.6948 20.9543 20.2358 20.9543 22.1319C20.9553 24.026 19.4154 25.5669 17.5193 25.5669Z" fill="white"/>
<path d="M18.6262 0L18.4183 0.0201823L18.4002 0H0V28.3874H10.739L10.4453 27.1129H1.27451V1.27451H17.5434V6.34531H22.5305V21.7161L23.805 22.7404V7.63798V5.4038V5.17978L18.6262 0Z" fill="white"/>
<path d="M2.92944 8.45639H6.15659C6.58344 8.45639 6.94269 8.52602 7.23533 8.66729C7.52797 8.80756 7.76411 8.98315 7.94575 9.19304C8.12739 9.40395 8.25756 9.63504 8.33628 9.8863C8.41499 10.1376 8.45333 10.3737 8.45333 10.5957C8.45333 10.9761 8.39379 11.3041 8.27371 11.5826C8.15363 11.8601 7.98409 12.0912 7.76512 12.2759C7.54614 12.4606 7.28579 12.5968 6.98507 12.6876C6.68436 12.7784 6.35438 12.8238 5.99816 12.8238H4.85786V14.7179H2.92944V8.45639ZM4.85786 11.3314H5.60359C5.72671 11.3314 5.84881 11.3273 5.97192 11.3182C6.09503 11.3092 6.20402 11.2839 6.30089 11.2395C6.39676 11.1961 6.47648 11.1285 6.53703 11.0377C6.59959 10.9489 6.62986 10.8238 6.62986 10.6653C6.62986 10.5251 6.60464 10.4141 6.55519 10.3323C6.50574 10.2506 6.43813 10.189 6.35337 10.1477C6.2686 10.1073 6.17072 10.0831 6.05971 10.074C5.94871 10.0649 5.83468 10.0609 5.71762 10.0609H4.85786V11.3314Z" fill="white"/>
<path d="M9.10229 8.45639H14.2831V10.0609H11.0307V10.8409H13.9854V12.3324H11.0307V13.1124H14.38V14.7169H9.10229V8.45639Z" fill="white"/>
<path d="M16.7392 10.0609H14.9854V8.45639H20.4214V10.0609H18.6686V14.7169H16.7392V10.0609Z" fill="white"/>
<path d="M11.8822 17.2579H3.03333V18.4597H11.8822V17.2579Z" fill="white"/>
<path d="M11.8822 19.5929H3.03333V20.7948H11.8822V19.5929Z" fill="white"/>
</svg>
