<svg width="46" height="30" viewBox="0 0 46 30" fill="none" xmlns="http://www.w3.org/2000/svg">
<path d="M27.0894 8.82353H30.2165C32.3061 8.82353 34 7.15982 34 5.10747V4.47964H30.6829C30.6829 3.19154 29.6448 2.17195 28.3333 2.17195H26.9512V0L18.7967 8.95928H3.52439C1.57796 8.95928 0 10.5091 0 12.4208V19.6154C0 20.1027 0.402195 20.4977 0.898374 20.4977C1.39455 20.4977 1.79675 20.1027 1.79675 19.6154V14.3213C1.79675 14.1338 1.95141 13.9819 2.14228 13.9819C2.33315 13.9819 2.4878 14.1338 2.4878 14.3213V21.0407L0.296049 23.5876C0.0692439 23.8549 0.0410488 24.2343 0.225699 24.531L3.5935 30H6.91057V29.8643C6.91057 28.6647 5.92056 27.6923 4.69919 27.6923L2.8068 24.5355L7.225 20.4513C8.09394 19.6481 8.56911 18.5476 8.56911 17.3756H10.0894C11.581 19.4685 13.9842 20.6335 16.5854 20.6335H17.9675L18.7868 28.2088L19.9024 30H23.2195V29.8643C23.2195 28.6647 22.2295 27.6923 21.0081 27.6923V20.4977C23.1576 19.6934 24.6016 17.7343 24.6016 15.4751V11.9457L27.0894 8.82353Z" fill="white"/>
<path d="M40.9627 20.6239C41.5482 19.9937 42.1051 19.4067 42.1932 18.5105C42.1932 18.4325 42.3048 18.343 42.2957 18.2618L41.5985 16.6458C40.116 15.9551 38.8509 14.9951 37.3861 14.3617C37.2744 14.477 37.0727 14.5898 37.0492 14.7315C36.9493 15.3269 36.4167 15.5266 36.0067 15.642C35.7136 15.7257 35.4212 15.8591 35.1281 15.9313C33.47 16.2753 32.1285 17.1542 30.9424 18.3107C30.6493 18.6 30.4619 18.9905 30.1897 19.314C29.4912 20.1703 29.0558 21.2617 29.018 22.4511V22.4595C28.9272 24.0439 28.892 25.6399 28.892 27.2301C28.892 27.2964 28.892 27.3628 28.892 27.424V30H36.3612V23.6915L37.3867 22.1966C37.4637 22.6245 37.6282 23.0046 37.8613 23.3332L37.8554 23.3242C37.9109 23.5065 37.9142 23.7346 37.8117 23.7379C37.8058 23.8513 37.8025 23.984 37.8025 24.118C37.8025 24.4775 37.826 24.8313 37.8717 25.1786L37.8672 25.1373C37.8815 26.0593 38.2771 26.9388 38.1276 27.8667C38.1315 28.0103 38.1603 28.1456 38.2099 28.2713L38.2073 28.2629C38.3098 28.9221 38.7197 29.4195 39.0011 29.9974H41.1951V29.1849C40.981 28.4214 40.2198 28.6328 39.8562 28.1179C40.0233 26.7417 39.616 25.2675 40.0964 23.8506C39.9502 23.2404 40.2929 22.6941 40.3484 22.1013C40.4026 21.5343 40.6259 21.0266 40.9673 20.6193L40.9627 20.6239Z" fill="white"/>
<path d="M45.1686 14.1618C44.9979 14.3313 44.8947 14.3958 44.8475 14.4864C44.6458 14.9212 44.2111 15.2171 43.706 15.2171C43.6325 15.2171 43.5602 15.2105 43.49 15.1988L43.4972 15.2001C42.6901 15.1271 41.9296 15.2177 41.3753 15.9575L37.509 13.7929C38.2899 12.4327 39.1095 11.266 40.6535 10.9617C41.1901 10.4676 41.1218 9.66595 41.7293 9.26838C41.7765 9.23905 41.8678 9.26838 41.9414 9.26838C42.1036 9.41437 41.9795 9.61316 42.0327 9.77741C42.2126 10.3392 42.2212 10.8861 43.0697 11.1083C44.5165 11.515 44.9709 12.7781 45.1686 14.1618ZM43.3534 12.5852C43.333 13.0734 43.7363 13.3693 44.0311 13.1992C44.0075 13.0851 43.9898 12.696 43.9694 12.5852H43.3534Z" fill="white"/>
</svg>
