<svg width="1837" height="1288" viewBox="0 0 1837 1288" fill="none" xmlns="http://www.w3.org/2000/svg">
<g clip-path="url(#clip0_24_69)">
<rect width="1837" height="1288" fill="white"/>
<rect width="1837" height="1288" fill="white"/>
<path d="M1599.7 1275.38C1616.06 1324.95 1668.79 1348.71 1716.83 1328.3L1796.19 1294.6C1850.2 1271.66 1868.8 1212.32 1837.2 1162.78C1803.97 1110.79 1730.47 1087.84 1673.64 1111.97C1612.01 1138.15 1578.73 1211.74 1599.7 1275.38Z" stroke="#363636" stroke-opacity="0.5" stroke-width="40" stroke-linecap="round" stroke-linejoin="round"/>
<path d="M1635.01 1079.49C1657.88 1069.78 1668.55 1043.36 1658.84 1020.48C1649.12 997.605 1622.7 986.938 1599.82 996.654C1576.95 1006.37 1566.28 1032.79 1576 1055.66C1585.71 1078.54 1612.13 1089.21 1635.01 1079.49Z" stroke="#363636" stroke-opacity="0.5" stroke-width="30" stroke-linecap="round" stroke-linejoin="round"/>
<path d="M1756.61 1051.31C1774.91 1043.54 1783.44 1022.4 1775.67 1004.1C1767.9 985.801 1746.76 977.267 1728.46 985.039C1710.16 992.812 1701.63 1013.95 1709.4 1032.25C1717.17 1050.55 1738.31 1059.08 1756.61 1051.31Z" stroke="#363636" stroke-opacity="0.5" stroke-width="30" stroke-linecap="round" stroke-linejoin="round"/>
<path d="M1846.06 1091.54C1859.78 1085.71 1866.18 1069.86 1860.35 1056.14C1854.52 1042.41 1838.67 1036.01 1824.95 1041.84C1811.22 1047.67 1804.82 1063.52 1810.65 1077.25C1816.48 1090.97 1832.33 1097.37 1846.06 1091.54Z" stroke="#363636" stroke-opacity="0.5" stroke-width="30" stroke-linecap="round" stroke-linejoin="round"/>
<path d="M1549.84 1178.25C1568.14 1170.47 1576.67 1149.34 1568.9 1131.04C1561.13 1112.74 1539.99 1104.2 1521.69 1111.98C1503.39 1119.75 1494.86 1140.89 1502.63 1159.19C1510.4 1177.49 1531.54 1186.02 1549.84 1178.25Z" stroke="#363636" stroke-opacity="0.5" stroke-width="30" stroke-linecap="round" stroke-linejoin="round"/>
<path d="M12.9108 -19.0991C-34.9779 -39.8696 -87.7964 -16.3211 -104.533 33.1232L-132.176 114.791C-150.99 170.373 -119.077 223.743 -61.0601 233.119C-0.142421 242.907 65.8993 203.311 85.6943 144.83C107.163 81.4057 74.3763 7.59724 12.9108 -19.0991Z" stroke="#363636" stroke-opacity="0.5" stroke-width="40" stroke-linecap="round" stroke-linejoin="round"/>
<path d="M135.648 137.605C127.68 161.146 140.304 186.689 163.844 194.657C187.385 202.625 212.928 190.001 220.897 166.461C228.865 142.919 216.241 117.376 192.7 109.408C169.16 101.44 143.616 114.064 135.648 137.605Z" stroke="#363636" stroke-opacity="0.5" stroke-width="30" stroke-linecap="round" stroke-linejoin="round"/>
<path d="M75.7724 247.13C69.3976 265.963 79.497 286.397 98.3296 292.771C117.162 299.146 137.597 289.047 143.971 270.214C150.346 251.383 140.247 230.947 121.414 224.572C102.582 218.198 82.1466 228.298 75.7724 247.13Z" stroke="#363636" stroke-opacity="0.5" stroke-width="30" stroke-linecap="round" stroke-linejoin="round"/>
<path d="M-13.7807 287.129C-18.5615 301.253 -10.9868 316.579 3.13724 321.36C17.263 326.142 32.5886 318.567 37.3694 304.443C42.1502 290.319 34.5764 274.992 20.4507 270.211C6.32665 265.43 -8.99986 273.005 -13.7807 287.129Z" stroke="#363636" stroke-opacity="0.5" stroke-width="30" stroke-linecap="round" stroke-linejoin="round"/>
<path d="M118.601 8.31336C112.227 27.146 122.327 47.5808 141.159 53.9554C159.992 60.3301 180.427 50.2308 186.801 31.3982C193.176 12.5656 183.077 -7.86895 164.244 -14.2436C145.411 -20.6182 124.976 -10.5193 118.601 8.31336Z" stroke="#363636" stroke-opacity="0.5" stroke-width="30" stroke-linecap="round" stroke-linejoin="round"/>
<path d="M1781.47 2.91268C1769.7 21.49 1773.45 48.5244 1789.84 63.2003C1807.64 79.1471 1836.21 78.748 1853.63 62.34C1860.37 56.0067 1863.99 47.5389 1863.85 38.5825C1863.75 29.6672 1859.85 21.3092 1852.98 15.1601L1831.56 -4.02522C1823.83 -10.9532 1814.35 -13.9992 1804.84 -12.6924C1795.34 -11.3855 1787.03 -5.79284 1781.47 2.91268Z" fill="#363636"/>
<path d="M1789.53 74.971C1782.12 68.3373 1770.74 68.9645 1764.1 76.3718C1757.47 83.7791 1758.1 95.1615 1765.51 101.795C1772.91 108.429 1784.3 107.802 1790.93 100.394C1797.56 92.9871 1796.94 81.6046 1789.53 74.971Z" fill="#363636"/>
<path d="M1763.83 42.3187C1757.66 36.7943 1748.18 37.3168 1742.66 43.4853C1737.13 49.6538 1737.66 59.1326 1743.82 64.657C1749.99 70.1813 1759.47 69.659 1765 63.4904C1770.52 57.3219 1770 47.8431 1763.83 42.3187Z" fill="#363636"/>
<path d="M1763.31 9.65611C1758.38 5.24104 1750.8 5.65888 1746.39 10.5889C1741.97 15.5184 1742.39 23.0936 1747.32 27.5086C1752.25 31.9233 1759.82 31.5061 1764.24 26.5766C1768.65 21.6466 1768.24 14.0708 1763.31 9.65611Z" fill="#363636"/>
<path d="M1831.34 86.6705C1825.18 81.1463 1815.7 81.6687 1810.17 87.8373C1804.65 94.0058 1805.17 103.485 1811.34 109.009C1817.51 114.533 1826.99 114.011 1832.51 107.842C1838.04 101.674 1837.51 92.1948 1831.34 86.6705Z" fill="#363636"/>
<rect width="1837" height="1288" fill="white" fill-opacity="0.4"/>
</g>
<defs>
<clipPath id="clip0_24_69">
<rect width="1837" height="1288" fill="white"/>
</clipPath>
</defs>
</svg>
