<svg width="34" height="33" viewBox="0 0 34 33" fill="none" xmlns="http://www.w3.org/2000/svg">
<path fill-rule="evenodd" clip-rule="evenodd" d="M30.85 2.45C30.85 2.2567 30.6933 2.1 30.5 2.1C30.3067 2.1 30.15 2.2567 30.15 2.45V3.15H29.45C29.2567 3.15 29.1 3.3067 29.1 3.5C29.1 3.69331 29.2567 3.85 29.45 3.85H30.15V4.55C30.15 4.74331 30.3067 4.9 30.5 4.9C30.6933 4.9 30.85 4.74331 30.85 4.55V3.85H31.55C31.7433 3.85 31.9 3.69331 31.9 3.5C31.9 3.3067 31.7433 3.15 31.55 3.15H30.85V2.45ZM27 3.5C27 1.567 28.567 0 30.5 0C32.433 0 34 1.567 34 3.5C34 5.43298 32.433 7 30.5 7C28.567 7 27 5.43298 27 3.5Z" fill="white"/>
<path d="M0 21.08C0 19.9053 2.94567 18.8758 7.35539 18.3072C6.86539 19.1783 6.63001 20.2736 6.63001 21.3197C6.63001 21.5705 6.65606 21.8145 6.69951 22.0527C4.85762 22.5088 3.96141 23.0162 3.69057 23.192C1.39194 22.625 0 21.8868 0 21.08ZM23.0948 18.294C23.5786 19.1597 23.815 20.2506 23.815 21.3205C23.815 21.5825 23.7877 21.838 23.7406 22.087C25.6054 22.5122 26.6665 22.9714 27.0362 23.1507C29.2348 22.589 30.5587 21.8678 30.5587 21.0805C30.559 19.8957 27.5645 18.8596 23.0948 18.294ZM15.1267 24.2069C15.0766 24.226 15.0207 24.2471 14.9603 24.2698C13.9683 24.6461 12.1215 25.3479 10.6915 25.3479C8.96926 25.3479 7.49494 24.2781 6.89087 22.7691C5.95007 23.0023 5.26928 23.246 4.81466 23.4429C5.23439 23.5267 5.67499 23.6054 6.13711 23.6787C6.73793 23.774 7.57923 24.1815 8.01424 24.6066L9.06317 25.6333C9.49769 26.0584 10.3432 26.4034 10.9518 26.4034H19.7614C20.3698 26.4034 21.2182 26.0612 21.6559 25.6394L22.7653 24.5703C23.2037 24.148 24.0475 23.7416 24.648 23.6424C25.0412 23.5777 25.4163 23.5081 25.7771 23.4358C25.2349 23.2439 24.4701 23.0128 23.4786 22.79C22.8695 24.2878 21.3997 25.3483 19.6852 25.3483C17.921 25.3479 16.889 25.0978 15.1267 24.2069ZM12.6634 10.484C14.2313 9.66607 14.5644 7.20553 13.4077 4.98793C12.2511 2.77033 10.0423 1.63584 8.47438 2.45371C6.9065 3.27144 6.5734 5.73213 7.73018 7.9498C8.88696 10.1672 11.0958 11.3019 12.6634 10.484ZM7.66712 16.3419C9.23464 15.5239 9.56726 13.063 8.41012 10.8453C7.25299 8.62755 5.04409 7.49263 3.47664 8.31058C1.90912 9.12852 1.5763 11.5894 2.7335 13.8074C3.89078 16.0249 6.09953 17.1598 7.66712 16.3419ZM17.2214 10.4847C18.7893 11.3024 20.9983 10.1677 22.1551 7.95029C23.3116 5.73269 22.9784 3.272 21.4109 2.45428C19.843 1.63633 17.6344 2.77104 16.4772 4.98864C15.3206 7.20602 15.6538 9.66678 17.2214 10.4847ZM21.4748 10.8459C20.3176 13.0637 20.6507 15.5244 22.2183 16.3421C23.7859 17.1598 25.9945 16.025 27.1512 13.8072C28.3084 11.5894 27.9753 9.12852 26.4077 8.31079C24.8402 7.49299 22.6316 8.62804 21.4748 10.8459ZM9.85238 16.5424C9.85238 16.8421 9.88345 17.1336 9.93504 17.4181C8.20256 17.5063 7.44555 19.5514 7.44555 21.3058C7.44555 23.117 8.91371 24.5853 10.7251 24.5853C12.3636 24.5853 14.845 23.4695 15.2225 23.375C17.1675 24.3902 18.0968 24.5853 19.7198 24.5853C21.5309 24.5853 22.9993 23.117 22.9993 21.3058C22.9993 19.616 22.3409 17.6158 20.6986 17.4377C20.7529 17.1472 20.7846 16.8486 20.7846 16.5425C20.7846 13.8687 17.992 11.0763 15.3183 11.0763C12.6442 11.0762 9.85238 13.8686 9.85238 16.5424ZM24.3986 24.512C27.0565 24.0735 28.8892 23.4975 29.8849 22.7916L27.8341 30.5226C27.8341 30.5226 25.4487 33 15.5373 33C5.62609 33 2.04669 30.4306 2.0474 30.4299L0.000495377 22.7943C1.02536 23.5194 2.93215 24.1066 5.71144 24.5483C6.20951 24.6273 6.94642 24.9903 7.28957 25.3259L8.33907 26.3526C8.87953 26.8813 9.85684 27.2798 10.6127 27.2798H19.422C20.1763 27.2798 21.1552 26.8852 21.6979 26.362L22.8082 25.2929C23.1552 24.9593 23.8977 24.5939 24.3986 24.512ZM17.0892 29.6595C16.6447 29.6595 16.2839 29.6595 16.2839 29.6595L16.0359 28.8944C15.899 28.4717 15.6754 28.4717 15.5389 28.8944C15.401 29.3173 15.2899 29.6595 15.2899 29.6595H14.4857C14.0413 29.6595 13.9728 29.8715 14.3322 30.1331C14.6929 30.3943 14.9832 30.6057 14.9832 30.6057L14.7353 31.3708C14.5981 31.7937 14.7787 31.9249 15.1378 31.6633C15.496 31.4018 15.788 31.1904 15.788 31.1904L16.4384 31.6633C16.7974 31.9245 16.9778 31.7937 16.841 31.3708C16.7033 30.9481 16.5919 30.6057 16.5919 30.6057L17.2434 30.1331C17.602 29.8715 17.5337 29.6595 17.0892 29.6595Z" fill="white"/>
</svg>
