<svg width="26" height="30" viewBox="0 0 26 30" fill="none" xmlns="http://www.w3.org/2000/svg">
<path d="M7.92775 9.82294L8.0977 9.80837C8.16203 9.80109 8.2203 9.77802 8.26886 9.74403L8.26764 9.74525C8.43031 10.3061 8.62939 10.896 8.87824 11.5139C9.1975 12.3224 9.5119 12.9864 9.86393 13.6273L9.81537 13.5302C9.78624 13.9721 9.75104 14.4261 9.70491 14.8655C9.68306 15.1362 9.62965 15.3887 9.54831 15.6266L9.55438 15.6048C9.53982 15.6108 9.51918 18.1297 9.51918 18.1297C9.52039 19.7721 10.6578 21.1475 12.1873 21.5129L12.2116 21.5177C12.2808 21.3417 12.4483 21.2191 12.645 21.2191H13.3418C13.5372 21.2215 13.7047 21.3429 13.7739 21.5141L13.7751 21.5177C15.3326 21.1511 16.4749 19.7758 16.4809 18.1321C16.4809 18.1321 16.4385 15.623 16.4166 15.606C16.3498 15.3936 16.2964 15.1435 16.2685 14.8861L16.2673 14.8679C16.2248 14.4261 16.1969 13.983 16.1568 13.5326C16.4567 12.9912 16.7711 12.3284 17.0478 11.645L17.094 11.5163C17.3428 10.8985 17.5358 10.3097 17.7046 9.74768C17.7519 9.78167 17.8102 9.80473 17.8733 9.81201H17.8745L18.0457 9.82658C18.252 9.84843 18.4341 9.67848 18.4511 9.41506L18.6356 7.07101C18.6356 7.0698 18.6356 7.06858 18.6356 7.06858C18.6356 6.87071 18.4875 6.70805 18.2969 6.68377H18.2945H18.2739C18.3212 6.34267 18.3479 5.94936 18.3479 5.54998C18.3479 4.6784 18.2193 3.83595 17.9801 3.04327L17.9959 3.10517C17.2955 1.56837 15.9068 0.452787 14.234 0.140813L14.2024 0.135958C13.8431 0.0619093 13.4243 0.0121391 12.997 0H12.9861H12.9715C12.5357 0.00849735 12.1169 0.0570536 11.7115 0.143241L11.7552 0.135958C10.0533 0.456429 8.66702 1.57201 7.97509 3.0724L7.96174 3.10517C7.73595 3.83352 7.60606 4.67111 7.60606 5.53784C7.60606 5.94208 7.63398 6.34024 7.68861 6.72869L7.68375 6.68377C7.49074 6.70562 7.34143 6.86707 7.34143 7.06373V7.07222L7.52594 9.41628C7.54294 9.68577 7.72745 9.84843 7.92653 9.82658L7.92775 9.82294Z" fill="white"/>
<path d="M25.998 25.3367C25.9131 21.6464 25.544 20.8112 25.3449 20.2455C25.266 20.0185 25.2017 18.4841 22.6671 17.4887C21.1133 16.8769 19.1079 16.8648 17.4109 16.1474V18.143C17.4072 20.2892 15.8704 22.0749 13.8371 22.4645L13.8092 22.4694C13.7716 22.6903 13.5822 22.8554 13.3552 22.8579H13.3333V24.3631C13.3333 25.8344 14.5254 27.0264 15.9967 27.0264C17.4679 27.0264 18.66 25.8344 18.66 24.3631V23.3119C17.9219 23.2014 17.3623 22.5726 17.3623 21.8127C17.3623 20.9763 18.0409 20.2977 18.8773 20.2977C19.7136 20.2977 20.3922 20.9763 20.3922 21.8127C20.3922 22.4755 19.9661 23.0387 19.3737 23.2451L19.3628 23.2487V24.3631V24.4202C19.3628 26.2799 17.8551 27.7875 15.9954 27.7875C14.1357 27.7875 12.6281 26.2799 12.6281 24.4202C12.6281 24.3995 12.6281 24.3801 12.6281 24.3595V24.3619V22.8433C12.412 22.8287 12.2372 22.6661 12.2032 22.4573V22.4548C10.1517 22.0555 8.62217 20.2759 8.61731 18.1382V16.1267C6.91299 16.8587 4.89547 16.8733 3.33317 17.4863C0.791252 18.4805 0.732985 20.0112 0.655295 20.2419C0.46107 20.81 0.0871865 21.6415 0.00221297 25.3342C-0.0123539 25.8198 0.00221303 26.5639 1.46618 27.2146C4.6539 28.4649 8.76055 28.8533 12.8089 29.1325H13.1974C17.2543 28.8558 21.3548 28.4685 24.5401 27.2146C25.998 26.5676 26.0114 25.8271 25.998 25.3367ZM8.17666 23.8314H6.66413V25.35H5.58376V23.8363H4.07123V22.7559H5.58376V21.2434H6.66413V22.7559H8.17666V23.8314Z" fill="white"/>
<path d="M19.6965 21.8006C19.6965 21.349 19.3312 20.9824 18.8796 20.9824C18.428 20.9824 18.0626 21.3478 18.0626 21.7994C18.0626 22.2509 18.428 22.6163 18.8796 22.6163C19.3299 22.6163 19.6953 22.2509 19.6965 21.8006Z" fill="white"/>
</svg>
