<svg width="20" height="33" viewBox="0 0 20 33" fill="none" xmlns="http://www.w3.org/2000/svg">
<path d="M11.1607 19.3973V7.63141C11.1607 7.30721 10.8983 7.04411 10.5732 7.04411H0.587373C0.262498 7.04411 0 7.30721 0 7.63141V31.9969C0 32.3207 0.262498 32.5838 0.587373 32.5838H7.4895C7.81418 32.5838 8.07681 32.3207 8.07681 31.996V20.572C8.07681 20.2479 8.33931 19.9848 8.66418 19.9848H10.5732C10.8983 19.9848 11.1607 19.7213 11.1607 19.3973ZM4.40543 28.5826C4.40543 28.9069 4.14293 29.1703 3.81806 29.1703H2.64318C2.3183 29.1703 2.05587 28.9069 2.05587 28.5826V27.4566C2.05587 27.1326 2.31837 26.8692 2.64318 26.8692H3.81806C4.14293 26.8692 4.40543 27.1326 4.40543 27.4566V28.5826ZM4.40543 24.1767C4.40543 24.5011 4.14293 24.7639 3.81806 24.7639H2.64318C2.3183 24.7639 2.05587 24.5012 2.05587 24.1767V20.7502C2.05587 20.4261 2.31837 20.1627 2.64318 20.1627H3.81806C4.14293 20.1627 4.40543 20.4261 4.40543 20.7502V24.1767ZM9.54531 15.495C9.54531 15.8193 9.28281 16.0825 8.95814 16.0825H2.64318C2.3183 16.0825 2.05587 15.8192 2.05587 15.495V14.7713C2.05587 14.4471 2.31837 14.184 2.64318 14.184H8.95814C9.28281 14.184 9.54531 14.4471 9.54531 14.7713V15.495ZM9.54531 10.7583C9.54531 11.0825 9.28281 11.3456 8.95814 11.3456H2.64318C2.3183 11.3456 2.05587 11.0825 2.05587 10.7583V10.0346C2.05587 9.71034 2.31837 9.44724 2.64318 9.44724H8.95814C9.28281 9.44724 9.54531 9.71034 9.54531 10.0346V10.7583ZM19.2376 20.6525C19.0756 20.6525 18.944 20.3894 18.944 20.0651V18.3032C18.944 17.9787 18.9341 17.7154 18.9222 17.7154C18.9104 17.7154 18.8868 17.4529 18.8641 17.1294C18.228 8.24125 13.7407 1.86711 12.4121 0.158371C12.213 -0.0977295 12.0419 -0.0354203 12.0419 0.288854V17.7154V19.2263V20.0651C12.0419 20.3895 11.7794 20.6526 11.4547 20.6526H9.54544C9.22057 20.6526 8.95814 20.9154 8.95814 21.2404V32.4128C8.95814 32.7368 9.22057 33 9.54544 33H18.9439C19.2689 33 19.5314 32.7369 19.5314 32.4128V21.2403C19.5315 20.9157 19.3996 20.6525 19.2376 20.6525ZM12.9964 8.58591C12.9964 8.2617 13.2588 7.9984 13.5838 7.9984H14.9056C15.23 7.9984 15.4929 8.2617 15.4929 8.58591V9.30963C15.4929 9.63384 15.2301 9.89694 14.9056 9.89694H13.5839C13.2589 9.89694 12.9964 9.63384 12.9964 9.30963V8.58591H12.9964ZM12.9964 12.1838C12.9964 11.8596 13.2588 11.5964 13.5838 11.5964H14.9056C15.23 11.5964 15.4929 11.8596 15.4929 12.1838V12.9075C15.4929 13.2318 15.2301 13.495 14.9056 13.495H13.5839C13.2589 13.495 12.9964 13.2318 12.9964 12.9075V12.1838H12.9964ZM12.9964 15.7818C12.9964 15.4575 13.2588 15.1943 13.5838 15.1943H14.9056C15.23 15.1943 15.4929 15.4575 15.4929 15.7818V16.5055C15.4929 16.8298 15.2301 17.0926 14.9056 17.0926H13.5839C13.2589 17.0926 12.9964 16.8298 12.9964 16.5055V15.7818H12.9964ZM18.3568 31.238C18.3568 31.562 18.094 31.8253 17.769 31.8253H15.1259H13.3634H10.7203C10.3953 31.8253 10.1328 31.5621 10.1328 31.238V22.4151C10.1328 22.0904 10.3953 21.8276 10.7203 21.8276H13.3634C13.6887 21.8276 13.9511 22.0904 13.9511 22.4151H14.5384C14.5384 22.0904 14.8009 21.8276 15.1259 21.8276H17.7695C18.0939 21.8276 18.3568 22.0904 18.3568 22.4151V31.238ZM12.2994 25.2998C12.1883 24.7119 12.4623 24.1667 12.9115 24.0812C13.3608 23.9966 13.8156 24.4034 13.9269 24.9906C14.0386 25.5781 13.7645 26.1236 13.3148 26.2088C12.8654 26.2938 12.4107 25.887 12.2994 25.2998ZM11.0469 26.8312C10.9561 26.3531 11.179 25.9096 11.5445 25.8403C11.9099 25.7713 12.2804 26.1022 12.3706 26.5799C12.4614 27.058 12.2385 27.5011 11.8729 27.5708C11.5069 27.6398 11.1371 27.3089 11.0469 26.8312ZM14.562 24.9902C14.6733 24.4025 15.128 23.9956 15.5774 24.0806C16.0269 24.1658 16.3008 24.711 16.1893 25.2988C16.0782 25.886 15.6235 26.2935 15.1741 26.2079C14.725 26.1227 14.4504 25.5775 14.562 24.9902ZM17.4423 26.8306C17.3519 27.3087 16.9818 27.6396 16.6157 27.5702C16.2496 27.5005 16.0269 27.0574 16.1172 26.5797C16.2079 26.1016 16.5781 25.7707 16.9441 25.84C17.3096 25.9096 17.5328 26.3529 17.4423 26.8306ZM16.3376 28.4864C16.5566 28.7953 16.6822 29.1526 16.4502 29.6562C16.2909 30.0002 16.0169 30.1423 15.7638 30.1955C15.4475 30.2624 14.9358 30.1022 14.6208 30.0319C14.3294 29.9672 13.9845 29.9212 13.7397 29.9871C13.2327 30.1243 12.5693 30.4754 12.0038 29.7535C11.7251 29.399 11.7628 29.0304 11.8732 28.7474C11.9908 28.4457 12.3836 28.0874 12.6162 27.8637C12.8442 27.6432 13.1098 27.358 13.2715 27.0816C13.3785 26.8971 13.5079 26.764 13.6327 26.6694C13.8749 26.4844 14.4058 26.4287 14.6917 26.5783C14.7206 26.5929 14.7486 26.6094 14.7747 26.6259C15.0481 26.7973 15.3302 27.2554 15.5299 27.5086C15.5507 27.534 15.5702 27.5593 15.5911 27.585C15.7921 27.8383 16.151 28.2224 16.3376 28.4864Z" fill="white"/>
</svg>
