<svg width="179" height="46" viewBox="0 0 179 46" fill="none" xmlns="http://www.w3.org/2000/svg">
<path d="M46 23C46 27.549 44.6511 31.9958 42.1238 35.7781C39.5965 39.5604 36.0044 42.5084 31.8017 44.2492C27.599 45.99 22.9745 46.4455 18.5129 45.5581C14.0514 44.6706 9.95316 42.4801 6.73655 39.2634C3.51995 36.0468 1.32941 31.9486 0.441949 27.4871C-0.445511 23.0255 0.00996552 18.401 1.75078 14.1983C3.4916 9.99558 6.43956 6.40347 10.2219 3.8762C14.0042 1.34893 18.451 0 23 0C26.0204 0 29.0112 0.594913 31.8017 1.75077C34.5922 2.90663 37.1277 4.6008 39.2635 6.73654C41.3992 8.87229 43.0934 11.4078 44.2492 14.1983C45.4051 16.9888 46 19.9796 46 23ZM13.1923 23.7321C14.0438 23.2502 14.677 22.459 14.9604 21.5225C15.2439 20.5861 15.1559 19.5765 14.7145 18.7033C13.9389 16.4954 12.0011 15.159 10.3859 15.7284C9.53513 16.2102 8.90244 17.001 8.61901 17.9367C8.33558 18.8725 8.42316 19.8814 8.86359 20.7543C9.63927 22.9651 11.577 24.2986 13.1923 23.7321ZM32.5521 25.9022C31.3093 24.6579 29.8335 23.6707 28.2089 22.9972C26.5843 22.3237 24.8429 21.977 23.0843 21.977C21.3256 21.977 19.5842 22.3237 17.9596 22.9972C16.335 23.6707 14.8592 24.6579 13.6164 25.9022C12.5946 26.9693 12.0313 28.3941 12.0474 29.8715C12.0634 31.3488 12.6573 32.7611 13.702 33.8058C14.7467 34.8504 16.159 35.4444 17.6363 35.4604C19.1136 35.4764 20.5385 34.9132 21.6055 33.8914C21.9977 33.5002 22.5289 33.2805 23.0828 33.2805C23.6367 33.2805 24.1679 33.5002 24.5601 33.8914C25.6271 34.9132 27.052 35.4764 28.5293 35.4604C30.0066 35.4444 31.4189 34.8504 32.4636 33.8058C33.5083 32.7611 34.1023 31.3488 34.1183 29.8715C34.1343 28.3941 33.571 26.9693 32.5492 25.9022H32.5521ZM15.2723 15.467C15.5251 18.1339 17.3059 20.1442 19.2582 19.9612C21.2046 19.7753 22.5788 17.4628 22.3289 14.7988C22.0762 12.1348 20.2924 10.1215 18.3431 10.3074C16.3966 10.4905 15.0196 12.803 15.2723 15.467ZM26.9016 19.9612C28.851 20.1442 30.6347 18.131 30.8875 15.467C31.1402 12.803 29.7661 10.4905 27.8167 10.3074C25.8703 10.1215 24.0836 12.1348 23.8309 14.7988C23.581 17.4657 24.9552 19.7753 26.9016 19.9612ZM35.7826 15.7284C34.1674 15.1619 32.2296 16.4925 31.454 18.7033C31.0135 19.5762 30.926 20.5851 31.2094 21.5209C31.4928 22.4566 32.1255 23.2474 32.9763 23.7292C34.5915 24.2986 36.5292 22.9651 37.3049 20.7543C37.7453 19.8814 37.8329 18.8725 37.5495 17.9367C37.2661 17.001 36.6334 16.2102 35.7826 15.7284Z" fill="#F9B517"/>
<g filter="url(#filter0_d_24_107)">
<path d="M68.2373 16H75.1973L66.3173 37H59.3573L50.4773 16H58.0973L63.1073 28.27L68.2373 16ZM79.5112 34.4H87.1312V37H76.2912V23H86.8712V25.6H79.5112V28.64H86.0112V31.16H79.5112V34.4ZM93.0092 37V25.64H88.5292V23H100.729V25.64H96.2492V37H93.0092ZM130.372 16H137.093L130.372 37H122.782L119.392 25.78L115.822 37H108.232L101.512 16H108.802L112.462 27.94L116.332 16H122.842L126.502 28.09L130.372 16ZM142.274 34.4H149.894V37H139.054V23H149.634V25.6H142.274V28.64H148.774V31.16H142.274V34.4ZM152.472 37V23H155.712V34.36H162.732V37H152.472ZM164.542 37V23H167.782V34.36H174.802V37H164.542Z" fill="white"/>
</g>
<defs>
<filter id="filter0_d_24_107" x="46.4773" y="14" width="132.325" height="29" filterUnits="userSpaceOnUse" color-interpolation-filters="sRGB">
<feFlood flood-opacity="0" result="BackgroundImageFix"/>
<feColorMatrix in="SourceAlpha" type="matrix" values="0 0 0 0 0 0 0 0 0 0 0 0 0 0 0 0 0 0 127 0" result="hardAlpha"/>
<feOffset dy="2"/>
<feGaussianBlur stdDeviation="2"/>
<feComposite in2="hardAlpha" operator="out"/>
<feColorMatrix type="matrix" values="0 0 0 0 0 0 0 0 0 0 0 0 0 0 0 0 0 0 0.25 0"/>
<feBlend mode="normal" in2="BackgroundImageFix" result="effect1_dropShadow_24_107"/>
<feBlend mode="normal" in="SourceGraphic" in2="effect1_dropShadow_24_107" result="shape"/>
</filter>
</defs>
</svg>
