<svg width="22" height="22" viewBox="0 0 22 22" fill="none" xmlns="http://www.w3.org/2000/svg">
<path fill-rule="evenodd" clip-rule="evenodd" d="M11 22C17.0751 22 22 17.0751 22 11C22 4.92487 17.0751 0 11 0C4.92487 0 0 4.92487 0 11C0 12.7597 0.413182 14.4228 1.14781 15.8977C1.34303 16.2897 1.40801 16.7377 1.29483 17.1607L0.639661 19.6094C0.355245 20.6723 1.32771 21.6447 2.39068 21.3604L4.83933 20.7052C5.26232 20.592 5.71033 20.657 6.10228 20.8521C7.57721 21.5868 9.24033 22 11 22ZM6.6 12.375C6.14437 12.375 5.775 12.7444 5.775 13.2C5.775 13.6556 6.14437 14.025 6.6 14.025H12.65C13.1056 14.025 13.475 13.6556 13.475 13.2C13.475 12.7444 13.1056 12.375 12.65 12.375H6.6ZM5.775 9.35C5.775 8.89438 6.14437 8.525 6.6 8.525H15.4C15.8556 8.525 16.225 8.89438 16.225 9.35C16.225 9.80562 15.8556 10.175 15.4 10.175H6.6C6.14437 10.175 5.775 9.80562 5.775 9.35Z" fill="white"/>
</svg>
