<svg width="26" height="26" viewBox="0 0 26 26" fill="none" xmlns="http://www.w3.org/2000/svg">
<path d="M22.7143 0H3.28607C1.47132 0 0 1.47084 0 3.2857V22.7143C0 24.5291 1.47132 26 3.28607 26H22.7143C24.5291 26 26.0004 24.5291 26.0004 22.7143V3.2857C26.0004 1.47084 24.5291 0 22.7143 0ZM13.0004 22.5283C7.73776 22.5283 3.47125 18.2618 3.47125 12.9991C3.47125 7.73728 7.73782 3.47083 13.0004 3.47083C18.2623 3.47083 22.5288 7.73728 22.5288 12.9991C22.5288 18.2618 18.2623 22.5283 13.0004 22.5283Z" fill="white"/>
<path d="M18.1964 10.7759H15.225V7.80355C15.225 7.2753 14.797 6.84732 14.2688 6.84732H11.7317C11.2035 6.84732 10.7754 7.2753 10.7754 7.80355V10.7759H7.80445C7.27625 10.7759 6.84827 11.2039 6.84827 11.7321V14.2687C6.84827 14.7969 7.27625 15.225 7.80445 15.225H10.7754V18.1964C10.7754 18.7246 11.2035 19.1527 11.7317 19.1527H14.2688C14.797 19.1527 15.225 18.7247 15.225 18.1964V15.225H18.1964C18.7246 15.225 19.1526 14.7969 19.1526 14.2687V11.7321C19.1527 11.2039 18.7246 10.7759 18.1964 10.7759Z" fill="white"/>
</svg>
