<svg width="118" height="114" viewBox="0 0 118 114" fill="none" xmlns="http://www.w3.org/2000/svg">
<path fill-rule="evenodd" clip-rule="evenodd" d="M107.2 8.4C107.2 7.73726 106.663 7.2 106 7.2C105.337 7.2 104.8 7.73726 104.8 8.4V10.8H102.4C101.737 10.8 101.2 11.3372 101.2 12C101.2 12.6628 101.737 13.2 102.4 13.2H104.8V15.6C104.8 16.2628 105.337 16.8 106 16.8C106.663 16.8 107.2 16.2628 107.2 15.6V13.2H109.6C110.263 13.2 110.8 12.6628 110.8 12C110.8 11.3372 110.263 10.8 109.6 10.8H107.2V8.4ZM94 12C94 5.37258 99.3726 0 106 0C112.627 0 118 5.37258 118 12C118 18.6274 112.627 24 106 24C99.3726 24 94 18.6274 94 12Z" fill="#0A3147"/>
<path d="M0 72.6052C0 68.5257 10.2293 64.9507 25.5428 62.976C23.8412 66.0013 23.0238 69.8048 23.0238 73.4376C23.0238 74.3085 23.1142 75.1559 23.2651 75.9831C16.8689 77.5668 13.7566 79.3288 12.8161 79.9393C4.83376 77.9703 0 75.4068 0 72.6052ZM80.2004 62.9301C81.8804 65.9364 82.7015 69.725 82.7015 73.4403C82.7015 74.3501 82.6066 75.2372 82.4432 76.1021C88.9188 77.5786 92.6039 79.1732 93.8878 79.796C101.523 77.8454 106.12 75.3409 106.12 72.6067C106.121 68.4922 95.7223 64.8944 80.2004 62.9301ZM52.5299 83.4636C52.3559 83.53 52.1618 83.6035 51.9521 83.6821C48.5071 84.9888 42.0939 87.4259 37.1279 87.4259C31.1472 87.4259 26.0274 83.7109 23.9297 78.4709C20.6626 79.2806 18.2984 80.1268 16.7197 80.8107C18.1773 81.1017 19.7073 81.375 21.3121 81.6296C23.3986 81.9604 26.3201 83.3754 27.8308 84.8517L31.4734 88.4171C32.9823 89.8933 35.9186 91.0914 38.0321 91.0914H68.6246C70.7374 91.0914 73.6837 89.9032 75.2037 88.4382L79.0562 84.7256C80.5787 83.2592 83.5088 81.848 85.5943 81.5035C86.9597 81.2789 88.2624 81.0371 89.5153 80.7859C87.6323 80.1197 84.9764 79.317 81.5334 78.5434C79.4182 83.7448 74.3141 87.4274 68.36 87.4274C62.2338 87.426 58.6497 86.5575 52.5299 83.4636ZM43.9759 35.8088C49.4206 32.9684 50.5774 24.4237 46.5605 16.7227C42.5439 9.02174 34.8734 5.08204 29.4287 7.92223C23.984 10.7619 22.8272 19.3071 26.8443 27.0083C30.8614 34.7085 38.5319 38.649 43.9759 35.8088ZM26.6253 56.1512C32.0688 53.3107 33.2239 44.7648 29.2055 37.0634C25.1872 29.3619 17.5164 25.4207 12.0732 28.2612C6.62973 31.1016 5.47395 39.6475 9.49253 47.3497C13.5114 55.0504 21.1816 58.9916 26.6253 56.1512ZM59.8042 35.811C65.2489 38.6507 72.9199 34.7103 76.9373 27.01C80.9532 19.309 79.7964 10.7639 74.3527 7.9242C68.908 5.08376 61.2382 9.0242 57.2196 16.7252C53.2033 24.4254 54.3605 32.9708 59.8042 35.811ZM74.5749 37.0653C70.5563 44.7671 71.713 53.3122 77.1568 56.1519C82.6005 58.9916 90.27 55.0507 94.2871 47.349C98.3057 39.6475 97.1489 31.1016 91.7052 28.2619C86.2617 25.422 78.592 29.3636 74.5749 37.0653ZM34.214 56.8476C34.214 57.8884 34.3219 58.9007 34.5011 59.8884C28.4847 60.1948 25.8559 67.2967 25.8559 73.3892C25.8559 79.6788 30.9543 84.7779 37.2447 84.7779C42.9346 84.7779 51.5515 80.9029 52.8626 80.5748C59.617 84.1001 62.8442 84.7779 68.4801 84.7779C74.7697 84.7779 79.8687 79.6788 79.8687 73.3892C79.8687 67.5213 77.5824 60.5752 71.8794 59.9564C72.0679 58.9479 72.1778 57.911 72.1778 56.8479C72.1778 47.5625 62.48 37.8655 53.1954 37.8655C43.9091 37.8653 34.214 47.5623 34.214 56.8476ZM84.7282 84.5231C93.9581 83.0006 100.322 81.0002 103.78 78.549L96.6584 105.396C96.6584 105.396 88.3747 113.999 53.9558 113.999C19.5375 113.999 7.10748 105.077 7.10994 105.074L0.00172028 78.5581C3.56074 81.0764 10.1824 83.1154 19.8339 84.6492C21.5635 84.9237 24.1226 86.1841 25.3142 87.3498L28.9588 90.9152C30.8356 92.751 34.2295 94.1348 36.8544 94.1348H67.4462C70.0655 94.1348 73.465 92.7647 75.3495 90.9476L79.2054 87.235C80.4101 86.0768 82.9885 84.8077 84.7282 84.5231ZM59.3452 102.399C57.8013 102.399 56.5485 102.399 56.5485 102.399L55.6874 99.7417C55.2118 98.2741 54.4355 98.2741 53.9614 99.7417C53.4824 101.211 53.0966 102.399 53.0966 102.399H50.3038C48.7607 102.399 48.5229 103.135 49.771 104.043C51.0234 104.95 52.0318 105.685 52.0318 105.685L51.1706 108.341C50.6944 109.81 51.3215 110.266 52.5685 109.357C53.8125 108.449 54.8265 107.715 54.8265 107.715L57.0852 109.357C58.3317 110.264 58.9584 109.81 58.4831 108.341C58.0051 106.874 57.618 105.685 57.618 105.685L59.8804 104.043C61.1259 103.135 60.8888 102.399 59.3452 102.399Z" fill="#0A3147"/>
</svg>
